<?xml version="1.0" encoding="UTF-8"?>
<svg version="1.1" xmlns="http://www.w3.org/2000/svg" width="288" height="192">
<path d="M0 0 C0.71655762 0.00080566 1.43311523 0.00161133 2.17138672 0.00244141 C9.04271315 0.08135103 15.33382345 0.95774137 21.75 3.5 C24.46475105 4.52554547 24.46475105 4.52554547 26.75 2.875 C28.0803125 2.0396875 28.0803125 2.0396875 29.4375 1.1875 C34.84071519 -0.07687211 38.32231134 0.05490651 43.4375 2.1875 C46.77422627 2.92271087 50.11989879 3.57340183 53.4765625 4.2109375 C56.82035372 5.31377101 57.71620259 6.18523708 59.4375 9.1875 C61.14243358 12.68710051 61.95272452 15.309466 61.4375 19.1875 C59.83839309 21.4362441 58.24408095 23.43402921 56.4375 25.5 C42.3444405 42.55391995 34.92664135 64.09322291 36.4375 86.1875 C37.51125483 92.54548137 39.62431951 95.83400528 44.4375 100.1875 C60.73073895 111.43302963 80.84159387 116.36768589 100.5 116.5 C101.51694946 116.50833862 101.51694946 116.50833862 102.55444336 116.5168457 C107.48146099 116.44579171 111.71573541 115.4516338 116.4375 114.1875 C119.4375 114.0625 119.4375 114.0625 121.4375 114.1875 C121.6875 116.5 121.6875 116.5 121.4375 119.1875 C118.7865681 122.28025389 115.75707426 122.71503743 111.8046875 123.0625 C89.17287251 124.25757934 69.04384065 119.74812323 48.61401367 110.20019531 C46.2789459 109.11372744 43.93773343 108.04285958 41.58984375 106.984375 C40.86788818 106.65791992 40.14593262 106.33146484 39.40209961 105.99511719 C29.68555809 102.00079392 18.01558254 104.22447761 8.56054688 107.92138672 C-2.81770785 112.80894324 -12.64493115 119.87211729 -22.5625 127.1875 C-37.71778222 138.22365424 -37.71778222 138.22365424 -46.21875 137.91796875 C-51.47492806 136.27979325 -54.66317428 131.63960268 -57.5625 127.1875 C-58.57435099 124.61664898 -59.26546587 122.14238839 -59.8828125 119.453125 C-60.95385744 115.88297519 -63.01991257 113.86390783 -65.5625 111.1875 C-66.74046194 108.83157612 -66.76874468 107.12374337 -66.9375 104.5 C-67.23978614 100.91867771 -67.65150802 99.00289076 -69.25 95.6875 C-71.08129439 90.80404829 -70.03047438 87.08373161 -68.5625 82.1875 C-68.0675 81.1975 -68.0675 81.1975 -67.5625 80.1875 C-67.53657276 76.91696345 -67.58948722 73.66116017 -67.68945312 70.39257812 C-67.80114127 63.3562247 -66.41741452 56.77988178 -62.08203125 51.10546875 C-57.71689685 47.78255248 -52.45352185 46.61479233 -47.19165039 45.26538086 C-46.37043701 45.04889893 -45.54922363 44.83241699 -44.703125 44.609375 C-43.95579102 44.42987305 -43.20845703 44.25037109 -42.43847656 44.06542969 C-40.42511509 43.32015497 -40.42511509 43.32015497 -39.34814453 41.37402344 C-38.54342016 39.134399 -38.13421704 37.14194827 -37.8515625 34.78125 C-37.74070313 33.95496094 -37.62984375 33.12867188 -37.515625 32.27734375 C-37.29699626 30.5517383 -37.08604618 28.82514251 -36.8828125 27.09765625 C-36.01391826 20.76855161 -36.01391826 20.76855161 -33.64453125 17.71875 C-31.00864993 15.78016561 -28.30196124 13.97653591 -25.5625 12.1875 C-24.7375 11.5275 -23.9125 10.8675 -23.0625 10.1875 C-20.33319456 8.00405565 -17.47919728 6.11127906 -14.5625 4.1875 C-13.840625 3.630625 -13.11875 3.07375 -12.375 2.5 C-8.545708 -0.27293559 -4.52349412 -0.00521741 0 0 Z " fill="#FFFFFF" transform="translate(157.5625,11.8125)"/>
</svg>
