<?xml version="1.0" encoding="UTF-8"?>
<svg version="1.1" xmlns="http://www.w3.org/2000/svg" width="288" height="192">
<path d="M0 0 C0.71655762 0.00080566 1.43311523 0.00161133 2.17138672 0.00244141 C9.04271315 0.08135103 15.33382345 0.95774137 21.75 3.5 C24.46475105 4.52554547 24.46475105 4.52554547 26.75 2.875 C28.0803125 2.0396875 28.0803125 2.0396875 29.4375 1.1875 C34.84071519 -0.07687211 38.32231134 0.05490651 43.4375 2.1875 C46.77422627 2.92271087 50.11989879 3.57340183 53.4765625 4.2109375 C56.82035372 5.31377101 57.71620259 6.18523708 59.4375 9.1875 C61.14243358 12.68710051 61.95272452 15.309466 61.4375 19.1875 C59.83839309 21.4362441 58.24408095 23.43402921 56.4375 25.5 C42.3444405 42.55391995 34.92664135 64.09322291 36.4375 86.1875 C37.51125483 92.54548137 39.62431951 95.83400528 44.4375 100.1875 C60.73073895 111.43302963 80.84159387 116.36768589 100.5 116.5 C101.51694946 116.50833862 101.51694946 116.50833862 102.55444336 116.5168457 C107.48146099 116.44579171 111.71573541 115.4516338 116.4375 114.1875 C119.4375 114.0625 119.4375 114.0625 121.4375 114.1875 C121.6875 116.5 121.6875 116.5 121.4375 119.1875 C118.7865681 122.28025389 115.75707426 122.71503743 111.8046875 123.0625 C89.17287251 124.25757934 69.04384065 119.74812323 48.61401367 110.20019531 C46.2789459 109.11372744 43.93773343 108.04285958 41.58984375 106.984375 C40.86788818 106.65791992 40.14593262 106.33146484 39.40209961 105.99511719 C29.68555809 102.00079392 18.01558254 104.22447761 8.56054688 107.92138672 C-2.81770785 112.80894324 -12.64493115 119.87211729 -22.5625 127.1875 C-37.71778222 138.22365424 -37.71778222 138.22365424 -46.21875 137.91796875 C-51.47492806 136.27979325 -54.66317428 131.63960268 -57.5625 127.1875 C-58.57435099 124.61664898 -59.26546587 122.14238839 -59.8828125 119.453125 C-60.95385744 115.88297519 -63.01991257 113.86390783 -65.5625 111.1875 C-66.74046194 108.83157612 -66.76874468 107.12374337 -66.9375 104.5 C-67.23978614 100.91867771 -67.65150802 99.00289076 -69.25 95.6875 C-71.08129439 90.80404829 -70.03047438 87.08373161 -68.5625 82.1875 C-68.0675 81.1975 -68.0675 81.1975 -67.5625 80.1875 C-67.53657276 76.91696345 -67.58948722 73.66116017 -67.68945312 70.39257812 C-67.80114127 63.3562247 -66.41741452 56.77988178 -62.08203125 51.10546875 C-57.71689685 47.78255248 -52.45352185 46.61479233 -47.19165039 45.26538086 C-46.37043701 45.04889893 -45.54922363 44.83241699 -44.703125 44.609375 C-43.95579102 44.42987305 -43.20845703 44.25037109 -42.43847656 44.06542969 C-40.42511509 43.32015497 -40.42511509 43.32015497 -39.34814453 41.37402344 C-38.54342016 39.134399 -38.13421704 37.14194827 -37.8515625 34.78125 C-37.74070313 33.95496094 -37.62984375 33.12867188 -37.515625 32.27734375 C-37.29699626 30.5517383 -37.08604618 28.82514251 -36.8828125 27.09765625 C-36.01391826 20.76855161 -36.01391826 20.76855161 -33.64453125 17.71875 C-31.00864993 15.78016561 -28.30196124 13.97653591 -25.5625 12.1875 C-24.7375 11.5275 -23.9125 10.8675 -23.0625 10.1875 C-20.33319456 8.00405565 -17.47919728 6.11127906 -14.5625 4.1875 C-13.840625 3.630625 -13.11875 3.07375 -12.375 2.5 C-8.545708 -0.27293559 -4.52349412 -0.00521741 0 0 Z " fill="#EEAF11" transform="translate(157.5625,11.8125)"/>
<path d="M0 0 C3.68290952 1.33448231 6.6094867 3.01041275 9.8125 5.25 C24.82587558 14.93604876 43.73490538 19.17156607 61.4375 19.1875 C62.50581055 19.20586914 62.50581055 19.20586914 63.59570312 19.22460938 C68.71878674 19.23856873 73.06062906 18.34710116 78 17 C81 16.875 81 16.875 83 17 C83.25 19.3125 83.25 19.3125 83 22 C80.3490681 25.09275389 77.31957426 25.52753743 73.3671875 25.875 C50.73537251 27.07007934 30.60634065 22.56062323 10.17651367 13.01269531 C7.8414459 11.92622744 5.50023343 10.85535958 3.15234375 9.796875 C2.43038818 9.47041992 1.70843262 9.14396484 0.96459961 8.80761719 C-8.29078814 5.00286726 -18.8239894 7.00973456 -28 10 C-33.48596133 12.35925417 -38.74455951 15.1725857 -44 18 C-44.66 18.33 -45.32 18.66 -46 19 C-46 18.34 -46 17.68 -46 17 C-47.94074861 17.27617533 -47.94074861 17.27617533 -50 18 C-50.66 18.99 -51.32 19.98 -52 21 C-54.36486932 22.57657955 -55.41531841 23.09744693 -58.25 22.625 C-59.11625 22.315625 -59.11625 22.315625 -60 22 C-59.505 20.515 -59.505 20.515 -59 19 C-57.1875 18.375 -57.1875 18.375 -55 18 C-54.2575 17.814375 -53.515 17.62875 -52.75 17.4375 C-52.1725 17.293125 -51.595 17.14875 -51 17 C-51 16.34 -51 15.68 -51 15 C-48.69 13.68 -46.38 12.36 -44 11 C-44 10.67 -44 10.34 -44 10 C-41.36 9.67 -38.72 9.34 -36 9 C-36 8.34 -36 7.68 -36 7 C-35.34 7 -34.68 7 -34 7 C-33.67 6.01 -33.34 5.02 -33 4 C-33 4.66 -33 5.32 -33 6 C-32.23816406 5.86722656 -31.47632813 5.73445313 -30.69140625 5.59765625 C-8.08837588 1.73171972 -8.08837588 1.73171972 -1 4 C-0.67 2.68 -0.34 1.36 0 0 Z " fill="#DC950D" transform="translate(196,109)"/>
<path d="M0 0 C4.82743619 -0.18931122 9.17775191 0.15089921 13.9375 1 C19.26510041 1.86930543 24.42760129 2.22165532 29.8125 2.25 C30.50529053 2.25902344 31.19808105 2.26804688 31.91186523 2.27734375 C36.89801767 2.24877322 41.18966706 1.29843206 46 0 C49 -0.125 49 -0.125 51 0 C51.25 2.3125 51.25 2.3125 51 5 C48.3490681 8.09275389 45.31957426 8.52753743 41.3671875 8.875 C33.4219419 9.29455092 25.65922303 8.99109786 17.75 8.1875 C17.00572754 8.11748779 16.26145508 8.04747559 15.49462891 7.9753418 C10.25955513 7.39205153 5.86993158 6.01077492 1 4 C1.99 3.34 2.98 2.68 4 2 C2.68 1.34 1.36 0.68 0 0 Z " fill="#E1B74D" transform="translate(228,126)"/>
<path d="M0 0 C1.06831055 -0.0009668 1.06831055 -0.0009668 2.15820312 -0.00195312 C7.75658911 0.05377741 13.01867649 0.72858598 18.4375 2.1875 C18.4375 2.8475 18.4375 3.5075 18.4375 4.1875 C13.68297382 6.56476309 7.47284135 5.04457938 2.4375 4.1875 C-2.65386493 3.83637138 -4.63671796 4.0944596 -8.5625 7.1875 C-11.1903517 8.03977623 -13.86358629 8.60765526 -16.5625 9.1875 C-17.89691641 9.51647071 -19.23057749 9.84857329 -20.5625 10.1875 C-20.5625 9.5275 -20.5625 8.8675 -20.5625 8.1875 C-18.59751678 6.80308 -16.59201535 5.47546166 -14.5625 4.1875 C-13.840625 3.630625 -13.11875 3.07375 -12.375 2.5 C-8.54523173 -0.27328047 -4.52380922 -0.00417711 0 0 Z " fill="#ECB824" transform="translate(157.5625,11.8125)"/>
<path d="M0 0 C4.29446077 0.65508724 7.86242214 2.15626312 11.8125 3.9375 C16.81557354 6.15365295 21.62701458 7.92540292 27 9 C27 9.66 27 10.32 27 11 C27.99 11.66 28.98 12.32 30 13 C27 15 27 15 23.80078125 14.796875 C19.73273385 13.94396475 16.04444947 12.76975323 12.1875 11.25 C11.52041016 11.01023437 10.85332031 10.77046875 10.16601562 10.5234375 C6.95139218 9.26483619 5.27479113 8.52807686 3.65234375 5.41015625 C3.32943359 4.21712891 3.32943359 4.21712891 3 3 C1.47992158 1.22722741 1.47992158 1.22722741 0 0 Z " fill="#D89E2F" transform="translate(205,116)"/>
<path d="M0 0 C13.38271605 2.09104938 13.38271605 2.09104938 19 5 C20.90255606 7.76384832 22 10.59383256 22 14 C19.69 14 17.38 14 15 14 C14.67 12.02 14.34 10.04 14 8 C13.28972656 7.95101563 12.57945312 7.90203125 11.84765625 7.8515625 C10.92855469 7.77679687 10.00945312 7.70203125 9.0625 7.625 C7.68771484 7.52058594 7.68771484 7.52058594 6.28515625 7.4140625 C5.15400391 7.20910156 5.15400391 7.20910156 4 7 C3.67 6.34 3.34 5.68 3 5 C0.98330173 3.86649466 0.98330173 3.86649466 -1 3 C-0.67 2.01 -0.34 1.02 0 0 Z " fill="#EDBA27" transform="translate(196,13)"/>
<path d="M0 0 C0.25 2.3125 0.25 2.3125 0 5 C-2.63587837 8.07519143 -5.63323522 8.51072303 -9.5625 8.8828125 C-14.37410133 9.11413949 -19.18467187 9.07222992 -24 9 C-24 8.67 -24 8.34 -24 8 C-21.36 7.67 -18.72 7.34 -16 7 C-16.33 6.34 -16.66 5.68 -17 5 C-12.35880806 0.74557406 -6.15776372 -0.38486023 0 0 Z " fill="#906830" transform="translate(279,126)"/>
<path d="M0 0 C4.10958767 1.45044271 7.43258745 3.51110752 11 6 C10.67 6.66 10.34 7.32 10 8 C11.65 9.32 13.3 10.64 15 12 C14.67 12.66 14.34 13.32 14 14 C10.40887126 12.89503731 7.0265901 11.57994133 3.625 10 C-0.52781106 8.11043571 -4.54717939 6.9715245 -9 6 C-9 5.67 -9 5.34 -9 5 C-6.69 5 -4.38 5 -2 5 C-1.34 3.35 -0.68 1.7 0 0 Z " fill="#D3931C" transform="translate(196,109)"/>
<path d="M0 0 C-0.66 1.32 -1.32 2.64 -2 4 C-3.11375 3.95875 -4.2275 3.9175 -5.375 3.875 C-9.04366025 3.58878141 -9.04366025 3.58878141 -11 6 C-12.0725 6.268125 -13.145 6.53625 -14.25 6.8125 C-18.64947239 8.20566626 -20.6575696 9.90213768 -24 13 C-24.25 9.6875 -24.25 9.6875 -24 6 C-17.807829 0.05093964 -8.11690562 -0.39919208 0 0 Z " fill="#EAB422" transform="translate(120,57)"/>
<path d="M0 0 C0.66 0.33 1.32 0.66 2 1 C1.67 2.03125 1.34 3.0625 1 4.125 C0.0284808 7.48426709 -0.17116771 10.49106202 0 14 C0.66 14 1.32 14 2 14 C2.33 14.66 2.66 15.32 3 16 C3.99 16.66 4.98 17.32 6 18 C5.68917128 19.75029762 5.37626821 21.50022694 5.0625 23.25 C4.80146484 24.71179688 4.80146484 24.71179688 4.53515625 26.203125 C4.09620271 28.49721795 3.59651408 30.74291971 3 33 C1.26733812 29.97306057 0.7426803 27.65460574 0.5625 24.1875 C0.29176345 20.62106655 -0.09128152 18.81067537 -1.6875 15.5 C-3.51879439 10.61654829 -2.46797438 6.89623161 -1 2 C-0.67 1.34 -0.34 0.68 0 0 Z " fill="#DBA515" transform="translate(90,92)"/>
<path d="M0 0 C1.32 0 2.64 0 4 0 C4.33 1.32 4.66 2.64 5 4 C-2.24042974 8.11638645 -7.59422965 10.84057704 -16 10 C-15.01 9.67 -14.02 9.34 -13 9 C-13.33 8.01 -13.66 7.02 -14 6 C-12.948125 6.0825 -11.89625 6.165 -10.8125 6.25 C-6.4201352 5.96197608 -5.16908922 4.897453 -2 2 C-1.34 2 -0.68 2 0 2 C0 1.34 0 0.68 0 0 Z " fill="#D79211" transform="translate(125,139)"/>
<path d="M0 0 C0.42629628 2.6023901 0.35591463 4.39689344 -0.99902344 6.69287109 C-2.40555001 8.57354815 -3.86879359 10.38570058 -5.375 12.1875 C-5.88289062 12.81591797 -6.39078125 13.44433594 -6.9140625 14.09179688 C-8.86856861 16.49635373 -10.80742383 18.80742383 -13 21 C-13.66 20.34 -14.32 19.68 -15 19 C-15 18.01 -15 17.02 -15 16 C-14.34 16 -13.68 16 -13 16 C-12.7525 15.4225 -12.505 14.845 -12.25 14.25 C-10.81700012 11.67060021 -9.21575324 9.93878408 -7 8 C-6.34 8 -5.68 8 -5 8 C-4.896875 7.236875 -4.79375 6.47375 -4.6875 5.6875 C-4.07941453 3.31043863 -2.99324645 0 0 0 Z " fill="#E3B11D" transform="translate(219,26)"/>
<path d="M0 0 C1.32 0.66 2.64 1.32 4 2 C-0.35712773 6.65571263 -4.07701151 10.39966359 -10 13 C-10.33 13.66 -10.66 14.32 -11 15 C-11.66 15 -12.32 15 -13 15 C-13.0625 12.375 -13.0625 12.375 -12 9 C-9.85070414 7.21817818 -7.62837816 5.81449719 -5.2265625 4.39453125 C-3.15910479 3.09964984 -1.6386257 1.79191649 0 0 Z " fill="#E8A71D" transform="translate(135,21)"/>
<path d="M0 0 C1.98 0 3.96 0 6 0 C-1.4 6 -1.4 6 -6 6 C-6.061875 6.78375 -6.12375 7.5675 -6.1875 8.375 C-7 11 -7 11 -9.3125 12.375 C-12.05329335 13.0123938 -13.39855749 12.96349722 -16 12 C-15.67 11.01 -15.34 10.02 -15 9 C-13.1875 8.375 -13.1875 8.375 -11 8 C-9.88625 7.7215625 -9.88625 7.7215625 -8.75 7.4375 C-8.1725 7.293125 -7.595 7.14875 -7 7 C-7 6.34 -7 5.68 -7 5 C-4.69 3.68 -2.38 2.36 0 1 C0 0.67 0 0.34 0 0 Z " fill="#E49907" transform="translate(152,119)"/>
<path d="M0 0 C8.89543642 -0.19865739 17.32910197 -0.33447255 26 2 C26 2.66 26 3.32 26 4 C25.46375 3.93941406 24.9275 3.87882813 24.375 3.81640625 C16.26568236 2.94945617 8.13961543 2.47464259 0 2 C0 1.34 0 0.68 0 0 Z " fill="#EBC13E" transform="translate(150,12)"/>
<path d="M0 0 C-0.33 1.32 -0.66 2.64 -1 4 C-3.97 4 -6.94 4 -10 4 C-10 4.66 -10 5.32 -10 6 C-13.3 6.66 -16.6 7.32 -20 8 C-20 7.34 -20 6.68 -20 6 C-19.01 6 -18.02 6 -17 6 C-17 5.34 -17 4.68 -17 4 C-16.236875 3.87625 -15.47375 3.7525 -14.6875 3.625 C-11.79732864 3.11897208 -11.79732864 3.11897208 -9 1 C-5.83064312 0.18734439 -3.31378326 0 0 0 Z " fill="#DFA422" transform="translate(196,12)"/>
<path d="M0 0 C0.2475 0.639375 0.495 1.27875 0.75 1.9375 C1.81562433 4.18741541 1.81562433 4.18741541 4.125 4.75 C4.74375 4.8325 5.3625 4.915 6 5 C5.67 6.32 5.34 7.64 5 9 C6.32 9.66 7.64 10.32 9 11 C9 13.64 9 16.28 9 19 C8.67 19 8.34 19 8 19 C8 17.35 8 15.7 8 14 C7.01 13.67 6.02 13.34 5 13 C0.77822843 8.90239818 0.38192295 5.63336356 0 0 Z " fill="#EAB31C" transform="translate(93,118)"/>
<path d="M0 0 C2 2 2 2 2.3125 4.25 C1.92644333 7.64729872 0.65523127 10.03437731 -1 13 C-1.66 13 -2.32 13 -3 13 C-3 13.66 -3 14.32 -3 15 C-3.66 15 -4.32 15 -5 15 C-4.7242265 8.7950962 -3.89359206 4.89839001 0 0 Z " fill="#D4980F" transform="translate(95,65)"/>
<path d="M0 0 C1.73030291 0.28484846 3.45920714 0.57819938 5.1875 0.875 C6.15042969 1.03742187 7.11335937 1.19984375 8.10546875 1.3671875 C10.91032604 1.98039517 13.37224747 2.85666343 16 4 C16 4.33 16 4.66 16 5 C13.91695462 5.05418326 11.83350232 5.09287551 9.75 5.125 C8.00976562 5.15980469 8.00976562 5.15980469 6.234375 5.1953125 C3.17213954 5.0103949 1.55797249 4.60823023 -1 3 C-0.67 2.01 -0.34 1.02 0 0 Z " fill="#EDBE3A" transform="translate(196,13)"/>
<path d="M0 0 C2.475 0.99 2.475 0.99 5 2 C4.39816251 4.02045442 3.72693904 6.02111039 3 8 C0.18185434 9.40907283 -1.17277204 8.50872691 -4.125 7.5625 C-5.03507813 7.27503906 -5.94515625 6.98757812 -6.8828125 6.69140625 C-7.58148438 6.46324219 -8.28015625 6.23507813 -9 6 C-9 5.67 -9 5.34 -9 5 C-6.69 5 -4.38 5 -2 5 C-1.34 3.35 -0.68 1.7 0 0 Z " fill="#CB8B12" transform="translate(196,109)"/>
<path d="M0 0 C2.97 0 5.94 0 9 0 C8.67 1.32 8.34 2.64 8 4 C3.71 3.67 -0.58 3.34 -5 3 C-5 2.67 -5 2.34 -5 2 C-3.35 2 -1.7 2 0 2 C0 1.34 0 0.68 0 0 Z " fill="#EDC15C" transform="translate(252,130)"/>
<path d="M0 0 C4.8333472 -0.08333357 9.23692563 0.04738513 14 1 C12 4 12 4 9 6 C5.53581611 5.65358161 3.95070119 4.96713413 1 3 C1.99 2.67 2.98 2.34 4 2 C2.68 1.34 1.36 0.68 0 0 Z " fill="#DCA93C" transform="translate(228,126)"/>
<path d="M0 0 C0 0.66 0 1.32 0 2 C1.65 1.34 3.3 0.68 5 0 C2.66784896 3.49822656 0.70480373 4.18701094 -3 6 C-3.33 6.66 -3.66 7.32 -4 8 C-4.66 8 -5.32 8 -6 8 C-5.6875 5.125 -5.6875 5.125 -5 2 C-2 0 -2 0 0 0 Z " fill="#D79510" transform="translate(128,28)"/>
<path d="M0 0 C3.96 0.33 7.92 0.66 12 1 C7.47900181 4.01399879 4.13967935 4.12108347 -1.25 4.0625 C-2.32765625 4.05347656 -3.4053125 4.04445312 -4.515625 4.03515625 C-5.33546875 4.02355469 -6.1553125 4.01195312 -7 4 C-7 3.67 -7 3.34 -7 3 C-4.36 2.67 -1.72 2.34 1 2 C0.67 1.34 0.34 0.68 0 0 Z " fill="#A17D37" transform="translate(262,131)"/>
<path d="M0 0 C2.125 0.375 2.125 0.375 4 1 C4 1.66 4 2.32 4 3 C3.278125 3.268125 2.55625 3.53625 1.8125 3.8125 C-1.04679724 4.94032684 -1.04679724 4.94032684 -3.6875 6.625 C-6 8 -6 8 -8 8 C-8 7.34 -8 6.68 -8 6 C-6.02678947 4.6273318 -4.02456848 3.29572383 -2 2 C-1.34 1.34 -0.68 0.68 0 0 Z " fill="#F0B930" transform="translate(145,14)"/>
<path d="M0 0 C1.65 0 3.3 0 5 0 C3.35 2.64 1.7 5.28 0 8 C-0.99 7.34 -1.98 6.68 -3 6 C-3 5.01 -3 4.02 -3 3 C-2.34 3 -1.68 3 -1 3 C-0.67 2.01 -0.34 1.02 0 0 Z " fill="#D9A91C" transform="translate(207,39)"/>
<path d="M0 0 C-2.0365296 2.0365296 -3.43680241 2.75303901 -6 4 C-8.34611533 5.31180642 -10.67164272 6.65671695 -13 8 C-13 6.68 -13 5.36 -13 4 C-11.02 3.67 -9.04 3.34 -7 3 C-7 2.34 -7 1.68 -7 1 C-4.53721199 -0.231394 -2.7204945 -0.07159196 0 0 Z " fill="#E09A0B" transform="translate(193,15)"/>
<path d="M0 0 C-0.33 2.31 -0.66 4.62 -1 7 C-1.99 7 -2.98 7 -4 7 C-5.0625 5.125 -5.0625 5.125 -6 3 C-4.60722783 0.21445565 -3.01148006 0 0 0 Z " fill="#DB910E" transform="translate(110,139)"/>
<path d="M0 0 C0.33 0.99 0.66 1.98 1 3 C1.66 3.33 2.32 3.66 3 4 C3 5.65 3 7.3 3 9 C2.34 9 1.68 9 1 9 C0.67 10.32 0.34 11.64 0 13 C-0.33 13 -0.66 13 -1 13 C-0.67 8.71 -0.34 4.42 0 0 Z " fill="#D58C0B" transform="translate(121,36)"/>
<path d="M0 0 C-0.33 1.32 -0.66 2.64 -1 4 C-3.97 4 -6.94 4 -10 4 C-9.67 3.01 -9.34 2.02 -9 1 C-5.846632 0.29925156 -3.27275026 0 0 0 Z " fill="#E5AD27" transform="translate(196,12)"/>
<path d="M0 0 C0.66 0 1.32 0 2 0 C0.515 5.445 0.515 5.445 -1 11 C-1.33 11 -1.66 11 -2 11 C-2.05399736 9.54207116 -2.09279177 8.08357288 -2.125 6.625 C-2.15980469 5.40683594 -2.15980469 5.40683594 -2.1953125 4.1640625 C-2 2 -2 2 0 0 Z " fill="#ECB619" transform="translate(93,88)"/>
<path d="M0 0 C0.33 1.32 0.66 2.64 1 4 C-0.98 4.99 -2.96 5.98 -5 7 C-5.33 6.01 -5.66 5.02 -6 4 C-2.25 0 -2.25 0 0 0 Z " fill="#D68E0C" transform="translate(129,139)"/>
<path d="M0 0 C0.66 0.33 1.32 0.66 2 1 C2.625 4.0625 2.625 4.0625 3 7 C2.34 7 1.68 7 1 7 C1 7.66 1 8.32 1 9 C0.34 9 -0.32 9 -1 9 C-0.67 6.03 -0.34 3.06 0 0 Z " fill="#C58D03" transform="translate(91,71)"/>
<path d="M0 0 C1.32 0 2.64 0 4 0 C4 1.98 4 3.96 4 6 C3.01 6.33 2.02 6.66 1 7 C0.67 4.69 0.34 2.38 0 0 Z " fill="#F2B51E" transform="translate(210,20)"/>
<path d="M0 0 C1.98 0 3.96 0 6 0 C5.01 1.485 5.01 1.485 4 3 C4.33 3.66 4.66 4.32 5 5 C3.68 5 2.36 5 1 5 C0.67 3.35 0.34 1.7 0 0 Z " fill="#CDA64F" transform="translate(259,129)"/>
<path d="M0 0 C0.99 0 1.98 0 3 0 C2.3125 1.9375 2.3125 1.9375 1 4 C-1.625 4.75 -1.625 4.75 -4 5 C-2.1875 2.5 -2.1875 2.5 0 0 Z " fill="#EEBB1F" transform="translate(212,34)"/>
</svg>
